<svg version="1.1" id="Layer_1" xmlns="http://www.w3.org/2000/svg" xmlns:xlink="http://www.w3.org/1999/xlink" x="0px" y="0px"
	 width="100%" viewBox="0 0 512 512" enable-background="new 0 0 512 512" xml:space="preserve">
<path fill="#010100" opacity="1.000000" stroke="none" 
	d="
M285.000000,513.000000 
	C190.023056,513.000000 95.546112,513.000000 1.034582,513.000000 
	C1.034582,342.398041 1.034582,171.796051 1.034582,1.097036 
	C171.560287,1.097036 342.120667,1.097036 512.840515,1.097036 
	C512.840515,171.666550 512.840515,342.333252 512.840515,513.000000 
	C437.129364,513.000000 361.314667,513.000000 285.000000,513.000000 
M330.105286,418.145844 
	C330.105286,418.145844 330.096497,418.233734 330.787842,418.191742 
	C331.381714,417.874786 331.975586,417.557861 332.828857,417.270233 
	C332.828857,417.270233 332.977844,417.055908 333.612122,417.080566 
	C334.141418,416.787781 334.670685,416.494995 335.116974,416.167389 
	C335.116974,416.167389 335.119843,416.257355 335.727875,416.231354 
	C336.250854,415.955078 336.773804,415.678802 336.975403,415.281311 
	C336.975403,415.281311 337.283356,415.433868 337.967773,415.330780 
	C339.410065,414.684021 340.852386,414.037262 342.004517,413.303711 
	C342.004517,413.303711 342.280762,413.428040 342.991394,413.311981 
	C345.104095,412.386475 347.216827,411.460968 349.362152,410.466614 
	C349.362152,410.466614 349.414978,410.521515 350.136505,410.356598 
	C371.989838,400.678436 393.859070,391.035645 415.659241,381.239197 
	C417.051392,380.613586 417.908264,378.796844 419.014191,377.534271 
	C417.693848,376.484619 416.522003,374.896667 415.025940,374.483856 
	C410.080872,373.119446 405.018768,372.179352 399.341156,370.731720 
	C389.576355,367.149597 379.811554,363.567474 369.674591,359.511749 
	C369.110474,359.350067 368.546356,359.188416 367.808105,358.797272 
	C367.808105,358.797272 367.520386,358.811493 367.060242,358.250214 
	C365.013733,357.142456 362.946960,356.070404 360.923859,354.921356 
	C343.548523,345.053009 328.846222,332.428558 318.960907,314.701263 
	C316.643921,310.546204 316.471100,306.756989 318.387665,302.405579 
	C324.547333,288.420166 330.503967,274.344666 336.459259,260.270203 
	C339.033905,254.185379 337.873199,250.747314 332.205963,247.260269 
	C327.250305,244.211029 322.422638,240.834717 317.149384,238.470840 
	C314.524506,237.294174 311.027496,238.062897 307.263428,238.094696 
	C303.009949,242.712875 298.756470,247.331055 294.213196,252.263855 
	C297.566254,254.306702 300.420959,255.954697 303.181335,257.747925 
	C307.950104,260.845917 309.320496,265.443726 306.844208,269.676331 
	C304.252594,274.106049 299.427795,275.130859 294.285370,272.221832 
	C290.273834,269.952545 286.339264,267.547241 283.023346,265.588104 
	C278.351898,270.012268 274.058685,274.078217 269.519867,278.376770 
	C272.328918,280.072510 275.045135,281.615143 277.660858,283.312622 
	C282.273590,286.305969 283.675934,291.127167 281.250214,295.282837 
	C278.784729,299.506683 273.929016,300.665436 269.088867,297.998779 
	C265.595001,296.073792 262.326233,293.718445 258.754547,291.968292 
	C257.482574,291.345001 255.130859,291.303864 254.103149,292.087280 
	C249.903534,295.288574 246.025269,298.911438 241.816040,302.563507 
	C243.651718,303.744293 245.168427,304.748230 246.713654,305.706207 
	C248.409637,306.757690 250.162170,307.719971 251.837021,308.803162 
	C256.857574,312.050262 258.273407,316.741241 255.585236,321.065033 
	C252.884995,325.408234 248.130020,326.289001 242.906799,323.269135 
	C237.744904,320.284637 232.655594,317.174591 227.448318,314.068237 
	C224.085373,316.571625 220.893951,318.962799 217.685760,321.331177 
	C214.534927,323.657227 211.367004,325.960175 207.913925,328.487457 
	C211.383423,330.563385 214.413757,332.295105 217.361252,334.157898 
	C222.684875,337.522369 224.173538,342.303589 221.382858,346.772003 
	C218.751328,350.985596 213.831924,351.867401 208.696533,348.905518 
	C204.230759,346.329803 199.767181,343.733948 195.457031,340.911255 
	C193.109497,339.373810 191.389267,339.391724 188.793060,340.778809 
	C173.706543,348.839050 158.453583,356.587646 143.262985,364.453400 
	C142.216187,364.995422 141.218796,365.632874 140.065887,366.302948 
	C196.288513,367.272125 236.551254,393.132172 263.351593,443.091797 
	C284.813995,435.113068 306.412323,427.083801 328.634796,419.075714 
	C329.151886,418.777618 329.668976,418.479523 330.105286,418.145844 
M469.778778,327.434387 
	C469.910614,331.759186 469.804718,336.109406 470.264038,340.399139 
	C470.536224,342.941315 470.968536,346.145874 472.607452,347.728485 
	C476.707642,351.687958 481.536957,354.892395 486.745819,358.919312 
	C487.017731,356.938934 487.253326,356.021698 487.253784,355.104340 
	C487.269745,322.631866 487.300079,290.159271 487.226349,257.686981 
	C487.213348,251.959183 484.482483,249.004120 478.818817,248.557068 
	C475.557556,248.299637 472.239502,248.761795 468.166992,248.704620 
	C462.244324,248.649033 460.294647,252.656021 459.061584,257.500488 
	C454.786865,274.295319 447.466797,289.654114 437.219360,303.627716 
	C436.497009,304.612732 435.954926,305.729919 434.996155,307.347076 
	C437.504791,307.347076 439.349457,307.137665 441.129517,307.387939 
	C445.706665,308.031403 450.454926,308.294495 454.771820,309.770966 
	C462.743073,312.497314 466.803131,319.246826 469.778778,327.434387 
M343.539642,213.356979 
	C340.479065,207.833740 340.792053,205.041275 345.320618,200.493973 
	C360.135223,185.618103 374.973785,170.765793 389.859131,155.960785 
	C394.682343,151.163589 399.678528,146.540314 404.967010,141.482208 
	C393.809235,130.333374 383.276825,119.715660 372.568573,109.278320 
	C371.659882,108.392609 369.530945,108.344749 368.047119,108.530991 
	C358.965637,109.670868 349.924347,111.140640 340.835052,112.205101 
	C332.937958,113.129959 326.051910,110.617752 320.311035,105.088242 
	C318.391174,103.239059 316.559998,101.297081 314.624359,99.465073 
	C309.667511,94.773598 305.547882,94.614365 300.720032,99.423462 
	C295.059479,105.062027 289.421448,110.766754 284.261566,116.856209 
	C269.219421,134.608215 252.592529,150.617188 233.703293,164.243515 
	C232.891541,164.829102 232.285004,165.699127 230.747238,167.314407 
	C237.086411,166.595215 242.243118,166.255966 247.310547,165.392715 
	C269.204315,161.663101 288.643311,152.077240 307.106903,140.145248 
	C315.463928,134.744568 324.282654,135.050171 331.295685,140.602280 
	C338.312164,146.157135 340.751678,154.816360 337.525543,163.990982 
	C333.775055,174.656616 329.815460,185.250061 325.836365,195.833389 
	C323.647430,201.655380 320.534149,203.283630 313.652435,201.929520 
	C308.530518,197.955429 307.794708,195.554794 310.026062,189.452225 
	C313.566742,179.768768 317.280334,170.146286 320.647430,160.403549 
	C321.304474,158.502365 320.715637,156.170609 320.701416,154.037445 
	C318.617584,154.586105 316.375549,154.809845 314.475220,155.735306 
	C300.450623,162.565201 286.894623,170.559708 272.420593,176.215775 
	C251.766068,184.287003 230.209290,186.600403 208.207550,181.135147 
	C202.001221,179.593491 198.094666,176.679276 195.806595,170.438675 
	C190.770859,156.704102 185.063980,143.214294 179.560165,129.653351 
	C177.269363,124.008972 174.154480,121.954987 168.821335,123.077782 
	C162.153793,124.481499 155.395203,125.855164 149.066086,128.266098 
	C146.531509,129.231598 143.597412,132.793121 143.358459,135.403107 
	C142.812897,141.361755 143.818527,147.462448 144.209763,153.758759 
	C147.857803,152.843735 150.905792,152.023300 153.980576,151.320068 
	C159.722778,150.006744 164.053055,152.293869 165.412613,157.282272 
	C166.729172,162.112915 163.909988,166.334549 158.171494,167.904800 
	C153.710281,169.125565 149.205933,170.188629 144.571716,171.359421 
	C144.571716,177.582352 144.571716,183.491501 144.571716,189.291367 
	C145.009171,189.459045 145.183014,189.597778 145.317688,189.566696 
	C148.392822,188.857056 151.455002,188.089233 154.537277,187.412903 
	C159.847794,186.247711 164.117340,188.656326 165.433868,193.500839 
	C166.699890,198.159546 163.993088,202.443253 158.646591,203.952362 
	C154.646378,205.081467 150.543793,205.861313 146.578400,207.091888 
	C145.418274,207.451935 143.823914,208.736954 143.707001,209.746140 
	C143.083984,215.123688 142.866776,220.548264 142.474319,226.483322 
	C146.841583,225.474579 150.534531,224.581085 154.246231,223.773865 
	C159.724884,222.582382 163.979507,224.896164 165.157959,229.640732 
	C166.380402,234.562469 163.931396,238.573517 158.499634,240.119446 
	C153.541885,241.530502 148.499344,242.642044 143.530136,244.015701 
	C142.346161,244.342972 140.467819,245.039597 140.329086,245.819092 
	C139.009827,253.232132 137.996902,260.699677 136.817200,268.684235 
	C141.080933,267.655396 144.449997,266.740265 147.863327,266.041473 
	C153.813126,264.823395 158.104279,267.183136 159.165558,272.106598 
	C160.261963,277.193054 157.612671,281.077301 151.772110,282.646057 
	C146.632614,284.026459 141.469421,285.342072 136.267563,286.456909 
	C133.647690,287.018433 132.593323,288.314850 131.852783,290.932739 
	C127.917099,304.845642 123.705391,318.680969 119.530243,332.525330 
	C118.000740,337.597046 114.791618,340.329773 109.169144,339.885956 
	C108.088295,339.800659 106.327087,340.671875 105.868439,341.593719 
	C102.563309,348.236481 99.512932,355.005981 96.025833,362.500275 
	C124.443916,355.175385 150.414978,344.062225 175.408951,328.917389 
	C172.281708,327.010284 169.968277,325.693909 167.753082,324.228973 
	C163.068604,321.131012 161.774536,316.445282 164.349503,312.230896 
	C166.918625,308.026093 171.659149,306.969238 176.537598,309.710144 
	C180.744461,312.073700 184.788269,314.729156 189.012939,317.058228 
	C190.155396,317.688110 192.139145,318.283783 192.977722,317.735107 
	C199.208832,313.658142 205.248566,309.288727 211.795578,304.697510 
	C208.156662,302.492279 205.149734,300.740356 202.214523,298.875549 
	C197.185654,295.680573 195.824005,291.001617 198.556335,286.590515 
	C201.122879,282.447021 205.972931,281.424347 210.832535,284.187073 
	C215.172272,286.654236 219.364563,289.381775 223.717682,291.823700 
	C224.694351,292.371552 226.525726,292.794434 227.187851,292.278778 
	C231.687714,288.774292 235.979767,285.003021 240.669388,281.038574 
	C235.967346,278.223053 232.092545,275.960083 228.275452,273.603577 
	C222.858307,270.259247 221.316010,265.577454 224.055573,261.050781 
	C226.805984,256.506195 231.492416,255.743561 237.119141,259.031250 
	C242.672791,262.276276 248.175018,265.609314 253.492523,268.780121 
	C258.025024,264.276978 262.198883,260.130188 266.627838,255.729950 
	C262.342285,253.128342 258.224152,250.661041 254.138916,248.140488 
	C248.399475,244.599319 246.822678,239.930649 249.753510,235.304031 
	C252.506470,230.958191 257.341217,230.269653 262.878143,233.520233 
	C268.312561,236.710617 273.704773,239.972824 279.338959,243.336929 
	C283.412231,238.798706 287.445129,234.594391 291.141510,230.112564 
	C295.548523,224.769073 300.916595,221.153183 308.486206,219.723175 
	C310.632172,219.711044 312.966400,219.142517 314.888275,219.792725 
	C320.310150,221.626999 325.562714,223.961685 331.236420,226.674423 
	C335.071716,229.009903 338.928741,231.310638 342.737610,233.688461 
	C349.677704,238.021042 354.100586,244.367676 354.497009,252.398743 
	C354.748901,257.501556 353.511719,262.994354 351.661896,267.821594 
	C347.179932,279.517853 341.948700,290.927002 336.948059,302.618713 
	C340.413330,303.471191 343.284760,304.527679 346.224335,304.775421 
	C348.127441,304.935791 350.666351,304.509735 351.993164,303.315918 
	C357.061646,298.755615 361.822357,293.842163 366.520874,288.892456 
	C367.310547,288.060577 367.907837,285.998718 367.432068,285.182281 
	C364.249298,279.719971 366.504059,275.850525 370.412720,271.964294 
	C391.680450,250.818604 412.897614,229.621582 434.042297,208.352875 
	C445.427155,196.901306 448.620239,181.249313 440.860840,168.146851 
	C436.240906,160.345734 429.289062,153.925598 422.802917,146.189682 
	C420.705750,148.705658 419.631866,150.215134 418.341583,151.508820 
	C398.104065,171.799988 377.850677,192.075348 357.570923,212.324326 
	C352.710724,217.177139 349.755981,217.486847 343.539642,213.356979 
M230.963120,449.190765 
	C235.575760,448.323975 240.188400,447.457153 245.229324,446.509857 
	C238.924728,433.990997 231.145477,423.716431 221.590485,414.818115 
	C207.895523,402.064362 192.336929,392.549103 173.253418,387.802338 
	C164.413803,386.476593 155.601395,384.282990 146.728928,384.004700 
	C127.934761,383.415253 109.107567,383.672913 90.297264,383.882629 
	C79.326454,384.004913 68.286179,384.068970 57.420708,385.363800 
	C49.789108,386.273254 42.108124,388.505005 34.979507,391.436066 
	C26.992836,394.719940 21.623560,401.169342 19.220064,409.727905 
	C18.390451,412.682098 18.440699,414.908142 21.882936,416.577698 
	C38.024128,424.406525 53.816467,432.986511 70.147476,440.384094 
	C90.683403,449.686371 112.221771,454.412079 135.070129,453.336334 
	C152.346161,452.522949 169.711090,453.687500 186.999252,453.014954 
	C201.400909,452.454712 215.748444,450.503510 230.963120,449.190765 
M478.075104,444.847321 
	C423.586334,444.837067 369.097473,444.793945 314.608917,444.895172 
	C311.213623,444.901489 307.643402,445.556641 304.453430,446.725525 
	C269.111267,459.675598 233.006866,469.175781 195.142899,469.955200 
	C169.992264,470.472870 144.823761,470.255188 119.664536,470.122253 
	C114.038521,470.092529 108.339798,469.447968 102.808258,468.388428 
	C78.238617,463.682343 55.671871,453.550446 33.554653,442.280151 
	C28.928364,439.922699 24.332001,437.506531 19.418747,434.960358 
	C23.202303,470.282471 52.258198,495.940369 88.058029,495.951080 
	C211.533203,495.987946 335.008362,495.966827 458.483551,495.951660 
	C460.307251,495.951416 462.130981,495.744415 464.747650,495.806244 
	C480.186981,493.734680 490.849091,485.408386 494.578735,470.320007 
	C496.564606,462.285919 495.883484,453.592621 496.415222,445.051758 
	C489.923401,445.051758 484.457642,445.051758 478.075104,444.847321 
M371.503235,427.758148 
	C409.954498,427.758148 448.405731,427.758148 487.337555,427.758148 
	C487.337555,412.330780 487.404602,397.363586 487.217560,382.399536 
	C487.201599,381.123779 485.721100,379.575073 484.532867,378.653564 
	C477.953522,373.551056 471.290741,368.553650 464.585938,363.616150 
	C456.898254,357.954742 453.252258,350.334747 453.225311,340.876312 
	C453.218201,338.376465 453.296814,335.872620 453.182983,333.377594 
	C452.937775,328.001984 450.214142,324.984375 444.865631,324.709778 
	C439.883820,324.454071 434.863098,324.448517 429.883636,324.742065 
	C408.590759,325.997192 387.307434,327.560394 365.998688,325.064240 
	C359.844147,324.343323 353.691345,323.607574 345.986115,322.694794 
	C347.824646,324.339111 348.523743,324.997345 349.257446,325.614502 
	C351.678711,327.651184 354.025452,329.789307 356.555328,331.681915 
	C375.203369,345.632568 396.647247,352.902039 419.057129,357.983032 
	C422.512115,358.766388 426.159760,360.259277 428.878265,362.461182 
	C440.496704,371.871735 438.045197,389.576660 423.959900,396.139618 
	C402.725128,406.033783 381.209412,415.324860 359.816528,424.879913 
	C358.272614,425.569519 356.756775,426.321930 355.227844,427.045105 
	C355.337646,427.282776 355.447449,427.520447 355.557251,427.758118 
	C360.540009,427.758118 365.522797,427.758118 371.503235,427.758148 
M274.722839,62.837425 
	C277.415588,72.700554 280.108368,82.563675 282.861176,92.646729 
	C285.267395,90.375740 287.703400,87.910782 290.312134,85.644630 
	C299.267548,77.865311 311.403076,76.550995 320.829956,82.783447 
	C324.670349,85.322487 327.681183,89.084946 331.364136,91.906021 
	C333.357178,93.432663 335.992676,95.097244 338.300049,95.043808 
	C343.994263,94.911942 349.666290,93.824387 356.193298,93.016251 
	C354.345764,91.054893 353.260254,89.841362 352.110992,88.691574 
	C331.381744,67.952789 310.645294,47.221165 289.909210,26.489197 
	C278.521240,15.103518 276.989624,15.120845 265.662781,26.748110 
	C261.003754,31.530714 260.846008,34.486885 264.001984,40.573040 
	C267.673065,47.652512 270.950073,54.936317 274.722839,62.837425 
z"/>
<path fill="#F37B00" opacity="1.000000" stroke="none" 
	d="
M307.687408,219.650345 
	C300.916595,221.153183 295.548523,224.769073 291.141510,230.112564 
	C287.445129,234.594391 283.412231,238.798706 279.338959,243.336929 
	C273.704773,239.972824 268.312561,236.710617 262.878143,233.520233 
	C257.341217,230.269653 252.506470,230.958191 249.753510,235.304031 
	C246.822678,239.930649 248.399475,244.599319 254.138916,248.140488 
	C258.224152,250.661041 262.342285,253.128342 266.627838,255.729950 
	C262.198883,260.130188 258.025024,264.276978 253.492523,268.780121 
	C248.175018,265.609314 242.672791,262.276276 237.119141,259.031250 
	C231.492416,255.743561 226.805984,256.506195 224.055573,261.050781 
	C221.316010,265.577454 222.858307,270.259247 228.275452,273.603577 
	C232.092545,275.960083 235.967346,278.223053 240.669388,281.038574 
	C235.979767,285.003021 231.687714,288.774292 227.187851,292.278778 
	C226.525726,292.794434 224.694351,292.371552 223.717682,291.823700 
	C219.364563,289.381775 215.172272,286.654236 210.832535,284.187073 
	C205.972931,281.424347 201.122879,282.447021 198.556335,286.590515 
	C195.824005,291.001617 197.185654,295.680573 202.214523,298.875549 
	C205.149734,300.740356 208.156662,302.492279 211.795578,304.697510 
	C205.248566,309.288727 199.208832,313.658142 192.977722,317.735107 
	C192.139145,318.283783 190.155396,317.688110 189.012939,317.058228 
	C184.788269,314.729156 180.744461,312.073700 176.537598,309.710144 
	C171.659149,306.969238 166.918625,308.026093 164.349503,312.230896 
	C161.774536,316.445282 163.068604,321.131012 167.753082,324.228973 
	C169.968277,325.693909 172.281708,327.010284 175.408951,328.917389 
	C150.414978,344.062225 124.443916,355.175385 96.025833,362.500275 
	C99.512932,355.005981 102.563309,348.236481 105.868439,341.593719 
	C106.327087,340.671875 108.088295,339.800659 109.169144,339.885956 
	C114.791618,340.329773 118.000740,337.597046 119.530243,332.525330 
	C123.705391,318.680969 127.917099,304.845642 131.852783,290.932739 
	C132.593323,288.314850 133.647690,287.018433 136.267563,286.456909 
	C141.469421,285.342072 146.632614,284.026459 151.772110,282.646057 
	C157.612671,281.077301 160.261963,277.193054 159.165558,272.106598 
	C158.104279,267.183136 153.813126,264.823395 147.863327,266.041473 
	C144.449997,266.740265 141.080933,267.655396 136.817200,268.684235 
	C137.996902,260.699677 139.009827,253.232132 140.329086,245.819092 
	C140.467819,245.039597 142.346161,244.342972 143.530136,244.015701 
	C148.499344,242.642044 153.541885,241.530502 158.499634,240.119446 
	C163.931396,238.573517 166.380402,234.562469 165.157959,229.640732 
	C163.979507,224.896164 159.724884,222.582382 154.246231,223.773865 
	C150.534531,224.581085 146.841583,225.474579 142.474319,226.483322 
	C142.866776,220.548264 143.083984,215.123688 143.707001,209.746140 
	C143.823914,208.736954 145.418274,207.451935 146.578400,207.091888 
	C150.543793,205.861313 154.646378,205.081467 158.646591,203.952362 
	C163.993088,202.443253 166.699890,198.159546 165.433868,193.500839 
	C164.117340,188.656326 159.847794,186.247711 154.537277,187.412903 
	C151.455002,188.089233 148.392822,188.857056 145.317688,189.566696 
	C145.183014,189.597778 145.009171,189.459045 144.571716,189.291367 
	C144.571716,183.491501 144.571716,177.582352 144.571716,171.359421 
	C149.205933,170.188629 153.710281,169.125565 158.171494,167.904800 
	C163.909988,166.334549 166.729172,162.112915 165.412613,157.282272 
	C164.053055,152.293869 159.722778,150.006744 153.980576,151.320068 
	C150.905792,152.023300 147.857803,152.843735 144.209763,153.758759 
	C143.818527,147.462448 142.812897,141.361755 143.358459,135.403107 
	C143.597412,132.793121 146.531509,129.231598 149.066086,128.266098 
	C155.395203,125.855164 162.153793,124.481499 168.821335,123.077782 
	C174.154480,121.954987 177.269363,124.008972 179.560165,129.653351 
	C185.063980,143.214294 190.770859,156.704102 195.806595,170.438675 
	C198.094666,176.679276 202.001221,179.593491 208.207550,181.135147 
	C230.209290,186.600403 251.766068,184.287003 272.420593,176.215775 
	C286.894623,170.559708 300.450623,162.565201 314.475220,155.735306 
	C316.375549,154.809845 318.617584,154.586105 320.701416,154.037445 
	C320.715637,156.170609 321.304474,158.502365 320.647430,160.403549 
	C317.280334,170.146286 313.566742,179.768768 310.026062,189.452225 
	C307.794708,195.554794 308.530518,197.955429 313.803894,202.521942 
	C311.866028,208.626358 309.776703,214.138351 307.687408,219.650345 
z"/>
<path fill="#FE9701" opacity="1.000000" stroke="none" 
	d="
M367.520386,358.811493 
	C367.520386,358.811493 367.808105,358.797272 368.088257,359.141663 
	C368.927826,359.652496 369.487274,359.818939 370.046753,359.985352 
	C379.811554,363.567474 389.576355,367.149597 399.842773,371.237183 
	C403.844757,379.345337 402.121063,385.036835 394.642670,388.629089 
	C384.044983,393.719727 373.223846,398.343475 362.590729,403.362762 
	C358.077942,405.492981 353.799774,408.120178 349.414978,410.521515 
	C349.414978,410.521515 349.362152,410.466614 348.970154,410.360535 
	C346.479004,411.312286 344.379883,412.370148 342.280762,413.428040 
	C342.280762,413.428040 342.004517,413.303711 341.773804,413.243652 
	C340.123138,413.933685 338.703247,414.683777 337.283356,415.433838 
	C337.283356,415.433868 336.975403,415.281311 336.811707,415.261230 
	C336.138611,415.579926 335.629242,415.918640 335.119843,416.257355 
	C335.119843,416.257355 335.116974,416.167389 334.839783,416.145813 
	C334.034363,416.434814 333.506104,416.745361 332.977844,417.055908 
	C332.977844,417.055908 332.828857,417.270233 332.336182,417.218231 
	C331.261169,417.522064 330.678833,417.877899 330.096497,418.233704 
	C330.096497,418.233734 330.105286,418.145844 329.830902,418.130371 
	C329.041229,418.428101 328.525970,418.741333 328.010681,419.054535 
	C306.412323,427.083801 284.813995,435.113068 263.351593,443.091797 
	C236.551254,393.132172 196.288513,367.272125 140.065887,366.302948 
	C141.218796,365.632874 142.216187,364.995422 143.262985,364.453400 
	C158.453583,356.587646 173.706543,348.839050 188.793060,340.778809 
	C191.389267,339.391724 193.109497,339.373810 195.457031,340.911255 
	C199.767181,343.733948 204.230759,346.329803 208.696533,348.905518 
	C213.831924,351.867401 218.751328,350.985596 221.382858,346.772003 
	C224.173538,342.303589 222.684875,337.522369 217.361252,334.157898 
	C214.413757,332.295105 211.383423,330.563385 207.913925,328.487457 
	C211.367004,325.960175 214.534927,323.657227 217.685760,321.331177 
	C220.893951,318.962799 224.085373,316.571625 227.448318,314.068237 
	C232.655594,317.174591 237.744904,320.284637 242.906799,323.269135 
	C248.130020,326.289001 252.884995,325.408234 255.585236,321.065033 
	C258.273407,316.741241 256.857574,312.050262 251.837021,308.803162 
	C250.162170,307.719971 248.409637,306.757690 246.713654,305.706207 
	C245.168427,304.748230 243.651718,303.744293 241.816040,302.563507 
	C246.025269,298.911438 249.903534,295.288574 254.103149,292.087280 
	C255.130859,291.303864 257.482574,291.345001 258.754547,291.968292 
	C262.326233,293.718445 265.595001,296.073792 269.088867,297.998779 
	C273.929016,300.665436 278.784729,299.506683 281.250214,295.282837 
	C283.675934,291.127167 282.273590,286.305969 277.660858,283.312622 
	C275.045135,281.615143 272.328918,280.072510 269.519867,278.376770 
	C274.058685,274.078217 278.351898,270.012268 283.023346,265.588104 
	C286.339264,267.547241 290.273834,269.952545 294.285370,272.221832 
	C299.427795,275.130859 304.252594,274.106049 306.844208,269.676331 
	C309.320496,265.443726 307.950104,260.845917 303.181335,257.747925 
	C300.420959,255.954697 297.566254,254.306702 294.213196,252.263855 
	C298.756470,247.331055 303.009949,242.712875 307.895264,238.192871 
	C309.646515,239.005539 310.742126,239.760925 311.889130,240.427917 
	C319.568481,244.893677 322.874054,253.768906 319.511993,261.808411 
	C313.617188,275.904327 307.641663,289.969543 301.435333,303.929993 
	C299.967712,307.231262 300.231964,309.639557 302.046600,312.694580 
	C312.449280,330.207855 328.006500,341.826050 345.752655,350.714417 
	C352.634064,354.161102 360.242920,356.155518 367.520386,358.811493 
z"/>
<path fill="#FEDFB1" opacity="1.000000" stroke="none" 
	d="
M463.954651,495.633911 
	C462.130981,495.744415 460.307251,495.951416 458.483551,495.951660 
	C335.008362,495.966827 211.533203,495.987946 88.058029,495.951080 
	C52.258198,495.940369 23.202303,470.282471 19.418747,434.960358 
	C24.332001,437.506531 28.928364,439.922699 33.554653,442.280151 
	C55.671871,453.550446 78.238617,463.682343 102.808258,468.388428 
	C108.339798,469.447968 114.038521,470.092529 119.664536,470.122253 
	C144.823761,470.255188 169.992264,470.472870 195.142899,469.955200 
	C233.006866,469.175781 269.111267,459.675598 304.453430,446.725525 
	C307.643402,445.556641 311.213623,444.901489 314.608917,444.895172 
	C369.097473,444.793945 423.586334,444.837067 478.533691,445.414734 
	C478.645172,452.661255 478.298065,459.340393 477.662598,465.818359 
	C474.303802,464.368652 471.247650,462.080383 468.160645,462.037933 
	C445.670898,461.728729 423.174988,461.869019 400.681000,461.872833 
	C395.349304,461.873749 390.012238,461.752197 384.687531,461.951355 
	C380.033661,462.125427 376.826965,465.418335 376.566742,469.814484 
	C376.308136,474.183380 379.187531,477.887146 383.644562,478.736755 
	C384.937805,478.983215 386.299042,478.918610 387.629181,478.919067 
	C414.288696,478.928040 440.948334,478.956238 467.607605,478.874207 
	C470.050720,478.866699 472.491577,478.139496 474.920105,478.121521 
	C474.203705,480.145782 473.740326,481.957733 472.752136,483.413361 
	C469.934021,487.564545 466.902283,491.570679 463.954651,495.633911 
z"/>
<path fill="#F34335" opacity="1.000000" stroke="none" 
	d="
M230.119949,449.168396 
	C215.748444,450.503510 201.400909,452.454712 186.999252,453.014954 
	C169.711090,453.687500 152.346161,452.522949 135.070129,453.336334 
	C112.221771,454.412079 90.683403,449.686371 70.147476,440.384094 
	C53.816467,432.986511 38.024128,424.406525 21.882936,416.577698 
	C18.440699,414.908142 18.390451,412.682098 19.220064,409.727905 
	C21.623560,401.169342 26.992836,394.719940 34.979507,391.436066 
	C42.108124,388.505005 49.789108,386.273254 57.420708,385.363800 
	C68.286179,384.068970 79.326454,384.004913 90.297264,383.882629 
	C109.107567,383.672913 127.934761,383.415253 146.728928,384.004700 
	C155.601395,384.282990 164.413803,386.476593 173.791840,388.239960 
	C188.718796,397.075867 202.030289,406.760437 212.530869,419.941620 
	C219.687744,428.925537 226.186234,438.264282 230.119949,449.168396 
z"/>
<path fill="#9D9D9D" opacity="1.000000" stroke="none" 
	d="
M308.086792,219.686768 
	C309.776703,214.138351 311.866028,208.626358 314.057983,202.715576 
	C320.534149,203.283630 323.647430,201.655380 325.836365,195.833389 
	C329.815460,185.250061 333.775055,174.656616 337.525543,163.990982 
	C340.751678,154.816360 338.312164,146.157135 331.295685,140.602280 
	C324.282654,135.050171 315.463928,134.744568 307.106903,140.145248 
	C288.643311,152.077240 269.204315,161.663101 247.310547,165.392715 
	C242.243118,166.255966 237.086411,166.595215 230.747238,167.314407 
	C232.285004,165.699127 232.891541,164.829102 233.703293,164.243515 
	C252.592529,150.617188 269.219421,134.608215 284.261566,116.856209 
	C289.421448,110.766754 295.059479,105.062027 300.720032,99.423462 
	C305.547882,94.614365 309.667511,94.773598 314.624359,99.465073 
	C316.559998,101.297081 318.391174,103.239059 320.311035,105.088242 
	C326.051910,110.617752 332.937958,113.129959 340.835052,112.205101 
	C349.924347,111.140640 358.965637,109.670868 368.047119,108.530991 
	C369.530945,108.344749 371.659882,108.392609 372.568573,109.278320 
	C383.276825,119.715660 393.809235,130.333374 404.967010,141.482208 
	C399.678528,146.540314 394.682343,151.163589 389.859131,155.960785 
	C374.973785,170.765793 360.135223,185.618103 345.320618,200.493973 
	C340.792053,205.041275 340.479065,207.833740 343.438507,213.862732 
	C339.185577,218.278702 335.033813,222.188919 330.882019,226.099136 
	C325.562714,223.961685 320.310150,221.626999 314.888275,219.792725 
	C312.966400,219.142517 310.632172,219.711044 308.086792,219.686768 
z"/>
<path fill="#CCD5D9" opacity="1.000000" stroke="none" 
	d="
M371.004395,427.758118 
	C365.522797,427.758118 360.540009,427.758118 355.557251,427.758118 
	C355.447449,427.520447 355.337646,427.282776 355.227844,427.045105 
	C356.756775,426.321930 358.272614,425.569519 359.816528,424.879913 
	C381.209412,415.324860 402.725128,406.033783 423.959900,396.139618 
	C438.045197,389.576660 440.496704,371.871735 428.878265,362.461182 
	C426.159760,360.259277 422.512115,358.766388 419.057129,357.983032 
	C396.647247,352.902039 375.203369,345.632568 356.555328,331.681915 
	C354.025452,329.789307 351.678711,327.651184 349.257446,325.614502 
	C348.523743,324.997345 347.824646,324.339111 345.986115,322.694794 
	C353.691345,323.607574 359.844147,324.343323 365.998688,325.064240 
	C387.307434,327.560394 408.590759,325.997192 429.883636,324.742065 
	C434.863098,324.448517 439.883820,324.454071 444.865631,324.709778 
	C450.214142,324.984375 452.937775,328.001984 453.182983,333.377594 
	C453.296814,335.872620 453.218201,338.376465 453.225311,340.876312 
	C453.252258,350.334747 456.898254,357.954742 464.585938,363.616150 
	C471.290741,368.553650 477.953522,373.551056 484.532867,378.653564 
	C485.721100,379.575073 487.201599,381.123779 487.217560,382.399536 
	C487.404602,397.363586 487.337555,412.330780 487.337555,427.758148 
	C448.405731,427.758148 409.954498,427.758148 371.004395,427.758118 
z"/>
<path fill="#DBC19A" opacity="1.000000" stroke="none" 
	d="
M331.059204,226.386780 
	C335.033813,222.188919 339.185577,218.278702 343.614624,214.198730 
	C349.755981,217.486847 352.710724,217.177139 357.570923,212.324326 
	C377.850677,192.075348 398.104065,171.799988 418.341583,151.508820 
	C419.631866,150.215134 420.705750,148.705658 422.802917,146.189682 
	C429.289062,153.925598 436.240906,160.345734 440.860840,168.146851 
	C448.620239,181.249313 445.427155,196.901306 434.042297,208.352875 
	C412.897614,229.621582 391.680450,250.818604 370.412720,271.964294 
	C366.504059,275.850525 364.249298,279.719971 367.432068,285.182281 
	C367.907837,285.998718 367.310547,288.060577 366.520874,288.892456 
	C361.822357,293.842163 357.061646,298.755615 351.993164,303.315918 
	C350.666351,304.509735 348.127441,304.935791 346.224335,304.775421 
	C343.284760,304.527679 340.413330,303.471191 336.948059,302.618713 
	C341.948700,290.927002 347.179932,279.517853 351.661896,267.821594 
	C353.511719,262.994354 354.748901,257.501556 354.497009,252.398743 
	C354.100586,244.367676 349.677704,238.021042 342.737610,233.688461 
	C338.928741,231.310638 335.071716,229.009903 331.059204,226.386780 
M395.882812,222.382767 
	C406.466675,211.800552 417.077606,201.245209 427.621460,190.623260 
	C432.013153,186.199036 432.404175,181.041718 428.817352,177.425140 
	C425.154175,173.731506 420.114227,174.062088 415.670288,178.487320 
	C400.587097,193.507050 385.532806,208.555954 370.517212,223.643188 
	C366.229279,227.951599 365.941742,232.678513 369.500885,236.403320 
	C373.102386,240.172455 378.195129,239.900131 382.662567,235.561264 
	C386.956696,231.390762 391.146393,227.112762 395.882812,222.382767 
z"/>
<path fill="#C61E1E" opacity="1.000000" stroke="none" 
	d="
M274.560486,62.484436 
	C270.950073,54.936317 267.673065,47.652512 264.001984,40.573040 
	C260.846008,34.486885 261.003754,31.530714 265.662781,26.748110 
	C276.989624,15.120845 278.521240,15.103518 289.909210,26.489197 
	C310.645294,47.221165 331.381744,67.952789 352.110992,88.691574 
	C353.260254,89.841362 354.345764,91.054893 356.193298,93.016251 
	C349.666290,93.824387 343.994263,94.911942 338.300049,95.043808 
	C335.992676,95.097244 333.357178,93.432663 331.364136,91.906021 
	C327.681183,89.084946 324.670349,85.322487 320.829956,82.783447 
	C311.403076,76.550995 299.267548,77.865311 290.312134,85.644630 
	C287.703400,87.910782 285.267395,90.375740 282.861176,92.646729 
	C280.108368,82.563675 277.415588,72.700554 274.560486,62.484436 
z"/>
<path fill="#C71E1E" opacity="1.000000" stroke="none" 
	d="
M468.946991,248.900024 
	C472.239502,248.761795 475.557556,248.299637 478.818817,248.557068 
	C484.482483,249.004120 487.213348,251.959183 487.226349,257.686981 
	C487.300079,290.159271 487.269745,322.631866 487.253784,355.104340 
	C487.253326,356.021698 487.017731,356.938934 486.745819,358.919312 
	C481.536957,354.892395 476.707642,351.687958 472.607452,347.728485 
	C470.968536,346.145874 470.536224,342.941315 470.264038,340.399139 
	C469.804718,336.109406 469.910614,331.759186 469.874054,326.499634 
	C469.994110,305.286926 470.093903,285.008667 469.992615,264.731354 
	C469.966278,259.452637 469.312561,254.177048 468.946991,248.900024 
z"/>
<path fill="#F27B00" opacity="1.000000" stroke="none" 
	d="
M367.290314,358.530853 
	C360.242920,356.155518 352.634064,354.161102 345.752655,350.714417 
	C328.006500,341.826050 312.449280,330.207855 302.046600,312.694580 
	C300.231964,309.639557 299.967712,307.231262 301.435333,303.929993 
	C307.641663,289.969543 313.617188,275.904327 319.511993,261.808411 
	C322.874054,253.768906 319.568481,244.893677 311.889130,240.427917 
	C310.742126,239.760925 309.646515,239.005539 308.226074,238.121323 
	C311.027496,238.062897 314.524506,237.294174 317.149384,238.470840 
	C322.422638,240.834717 327.250305,244.211029 332.205963,247.260269 
	C337.873199,250.747314 339.033905,254.185379 336.459259,260.270203 
	C330.503967,274.344666 324.547333,288.420166 318.387665,302.405579 
	C316.471100,306.756989 316.643921,310.546204 318.960907,314.701263 
	C328.846222,332.428558 343.548523,345.053009 360.923859,354.921356 
	C362.946960,356.070404 365.013733,357.142456 367.290314,358.530853 
z"/>
<path fill="#F14234" opacity="1.000000" stroke="none" 
	d="
M468.557007,248.802322 
	C469.312561,254.177048 469.966278,259.452637 469.992615,264.731354 
	C470.093903,285.008667 469.994110,305.286926 469.963745,326.075256 
	C466.803131,319.246826 462.743073,312.497314 454.771820,309.770966 
	C450.454926,308.294495 445.706665,308.031403 441.129517,307.387939 
	C439.349457,307.137665 437.504791,307.347076 434.996155,307.347076 
	C435.954926,305.729919 436.497009,304.612732 437.219360,303.627716 
	C447.466797,289.654114 454.786865,274.295319 459.061584,257.500488 
	C460.294647,252.656021 462.244324,248.649033 468.557007,248.802322 
z"/>
<path fill="#E2C69E" opacity="1.000000" stroke="none" 
	d="
M464.351135,495.720093 
	C466.902283,491.570679 469.934021,487.564545 472.752136,483.413361 
	C473.740326,481.957733 474.203705,480.145782 475.085724,477.827972 
	C479.245880,474.190186 479.479614,470.317352 477.950989,466.019531 
	C478.298065,459.340393 478.645172,452.661255 478.992065,445.516937 
	C484.457642,445.051758 489.923401,445.051758 496.415222,445.051758 
	C495.883484,453.592621 496.564606,462.285919 494.578735,470.320007 
	C490.849091,485.408386 480.186981,493.734680 464.351135,495.720093 
z"/>
<path fill="#C51E1E" opacity="1.000000" stroke="none" 
	d="
M230.541534,449.179565 
	C226.186234,438.264282 219.687744,428.925537 212.530869,419.941620 
	C202.030289,406.760437 188.718796,397.075867 174.142303,388.396667 
	C192.336929,392.549103 207.895523,402.064362 221.590485,414.818115 
	C231.145477,423.716431 238.924728,433.990997 245.229324,446.509857 
	C240.188400,447.457153 235.575760,448.323975 230.541534,449.179565 
z"/>
<path fill="#EA7700" opacity="1.000000" stroke="none" 
	d="
M349.775757,410.439056 
	C353.799774,408.120178 358.077942,405.492981 362.590729,403.362762 
	C373.223846,398.343475 384.044983,393.719727 394.642670,388.629089 
	C402.121063,385.036835 403.844757,379.345337 400.173004,371.409546 
	C405.018768,372.179352 410.080872,373.119446 415.025940,374.483856 
	C416.522003,374.896667 417.693848,376.484619 419.014160,377.534241 
	C417.908264,378.796844 417.051392,380.613586 415.659241,381.239197 
	C393.859070,391.035645 371.989838,400.678436 349.775757,410.439056 
z"/>
<path fill="#EA7700" opacity="1.000000" stroke="none" 
	d="
M342.636078,413.369995 
	C344.379883,412.370148 346.479004,411.312286 348.953857,410.394928 
	C347.216827,411.460968 345.104095,412.386475 342.636078,413.369995 
z"/>
<path fill="#EA7700" opacity="1.000000" stroke="none" 
	d="
M337.625549,415.382324 
	C338.703247,414.683777 340.123138,413.933685 341.918884,413.287048 
	C340.852386,414.037262 339.410065,414.684021 337.625549,415.382324 
z"/>
<path fill="#F27B00" opacity="1.000000" stroke="none" 
	d="
M369.860657,359.748566 
	C369.487274,359.818939 368.927826,359.652496 368.175293,359.256409 
	C368.546356,359.188416 369.110474,359.350067 369.860657,359.748566 
z"/>
<path fill="#EA7700" opacity="1.000000" stroke="none" 
	d="
M335.423859,416.244354 
	C335.629242,415.918640 336.138611,415.579926 336.972382,415.321838 
	C336.773804,415.678802 336.250854,415.955078 335.423859,416.244354 
z"/>
<path fill="#EA7700" opacity="1.000000" stroke="none" 
	d="
M333.294983,417.068237 
	C333.506104,416.745361 334.034363,416.434814 334.881287,416.163239 
	C334.670685,416.494995 334.141418,416.787781 333.294983,417.068237 
z"/>
<path fill="#EA7700" opacity="1.000000" stroke="none" 
	d="
M330.442169,418.212708 
	C330.678833,417.877899 331.261169,417.522064 332.206482,417.203552 
	C331.975586,417.557861 331.381714,417.874786 330.442169,418.212708 
z"/>
<path fill="#EA7700" opacity="1.000000" stroke="none" 
	d="
M328.322754,419.065125 
	C328.525970,418.741333 329.041229,418.428101 329.871307,418.148132 
	C329.668976,418.479523 329.151886,418.777618 328.322754,419.065125 
z"/>
<path fill="#030202" opacity="1.000000" stroke="none" 
	d="
M477.662598,465.818359 
	C479.479614,470.317352 479.245880,474.190186 475.099121,477.452942 
	C472.491577,478.139496 470.050720,478.866699 467.607605,478.874207 
	C440.948334,478.956238 414.288696,478.928040 387.629181,478.919067 
	C386.299042,478.918610 384.937805,478.983215 383.644562,478.736755 
	C379.187531,477.887146 376.308136,474.183380 376.566742,469.814484 
	C376.826965,465.418335 380.033661,462.125427 384.687531,461.951355 
	C390.012238,461.752197 395.349304,461.873749 400.681000,461.872833 
	C423.174988,461.869019 445.670898,461.728729 468.160645,462.037933 
	C471.247650,462.080383 474.303802,464.368652 477.662598,465.818359 
z"/>
<path fill="#030302" opacity="1.000000" stroke="none" 
	d="
M395.632385,222.632385 
	C391.146393,227.112762 386.956696,231.390762 382.662567,235.561264 
	C378.195129,239.900131 373.102386,240.172455 369.500885,236.403320 
	C365.941742,232.678513 366.229279,227.951599 370.517212,223.643188 
	C385.532806,208.555954 400.587097,193.507050 415.670288,178.487320 
	C420.114227,174.062088 425.154175,173.731506 428.817352,177.425140 
	C432.404175,181.041718 432.013153,186.199036 427.621460,190.623260 
	C417.077606,201.245209 406.466675,211.800552 395.632385,222.632385 
z"/>
</svg>